<svg width="512" height="512" viewBox="0 0 512 512" fill="none" xmlns="http://www.w3.org/2000/svg">
  <defs>
    <linearGradient id="p" x1="128" y1="88" x2="420" y2="456" gradientUnits="userSpaceOnUse">
      <stop stop-color="#38BDF8"/>
      <stop offset="1" stop-color="#A855F7"/>
    </linearGradient>
    <linearGradient id="m" x1="116" y1="120" x2="396" y2="400" gradientUnits="userSpaceOnUse">
      <stop stop-color="#0B1220"/>
      <stop offset="1" stop-color="#111827"/>
    </linearGradient>
    <filter id="sh" x="-20%" y="-20%" width="140%" height="140%">
      <feDropShadow dx="0" dy="12" stdDeviation="14" flood-color="#000000" flood-opacity="0.25"/>
    </filter>
  </defs>
  <rect x="64" y="64" width="384" height="384" rx="48" fill="url(#p)" opacity="0.14"/>
  <g filter="url(#sh)">
    <rect x="132" y="148" width="248" height="224" rx="40" fill="url(#m)" stroke="url(#p)" stroke-width="4"/>
    <path d="M182 216H330" stroke="#334155" stroke-width="10" stroke-linecap="round"/>
    <path d="M182 268H290" stroke="#334155" stroke-width="10" stroke-linecap="round"/>
    <circle cx="340" cy="268" r="18" fill="#38BDF8"/>
    <path d="M160 216C160 178.444 190.444 148 228 148H284C321.556 148 352 178.444 352 216V224H160V216Z" fill="#0F172A" stroke="#334155" stroke-width="2"/>
    <path d="M112 308C112 294.745 122.745 284 136 284H172C185.255 284 196 294.745 196 308V372C196 394.091 178.091 412 156 412C133.909 412 116 394.091 116 372V318C116 312.477 111.523 308 106 308H112Z" fill="#0F172A" stroke="#334155" stroke-width="2"/>
    <path d="M400 328C400 310.327 385.673 296 368 296H332C314.327 296 300 310.327 300 328V360C300 382.091 317.909 400 340 400C362.091 400 380 382.091 380 360V348C380 336.954 388.954 328 400 328Z" fill="#0F172A" stroke="#334155" stroke-width="2"/>
    <rect x="98" y="292" width="52" height="52" rx="18" fill="#111827" stroke="url(#p)" stroke-width="4"/>
    <rect x="362" y="304" width="52" height="52" rx="18" fill="#111827" stroke="url(#p)" stroke-width="4"/>
    <path d="M124 318H124.5" stroke="#A855F7" stroke-width="10" stroke-linecap="round"/>
    <path d="M388 330H388.5" stroke="#38BDF8" stroke-width="10" stroke-linecap="round"/>
    <path d="M226 372C226 400.719 234.933 424.577 252.8 443.575C254.94 445.853 256 448.826 256 451.968V456H308C340.033 456 366 430.033 366 398V386" stroke="#334155" stroke-width="10" stroke-linecap="round"/>
    <circle cx="366" cy="386" r="14" fill="#A855F7"/>
    <circle cx="308" cy="456" r="10" fill="#38BDF8"/>
  </g>
</svg>
