<svg width="512" height="512" viewBox="0 0 512 512" fill="none" xmlns="http://www.w3.org/2000/svg">
  <defs>
    <linearGradient id="g1" x1="96" y1="64" x2="416" y2="448" gradientUnits="userSpaceOnUse">
      <stop stop-color="#7C3AED"/>
      <stop offset="1" stop-color="#22C55E"/>
    </linearGradient>
    <linearGradient id="g2" x1="160" y1="164" x2="352" y2="356" gradientUnits="userSpaceOnUse">
      <stop stop-color="#0B1220"/>
      <stop offset="1" stop-color="#111827"/>
    </linearGradient>
    <filter id="s" x="-20%" y="-20%" width="140%" height="140%">
      <feDropShadow dx="0" dy="12" stdDeviation="14" flood-color="#000000" flood-opacity="0.25"/>
    </filter>
  </defs>
  <rect x="56" y="56" width="400" height="400" rx="48" fill="url(#g1)" opacity="0.18"/>
  <g filter="url(#s)">
    <rect x="132" y="140" width="248" height="248" rx="64" fill="url(#g2)" stroke="url(#g1)" stroke-width="4"/>
    <path d="M196 140C196 112.386 218.386 90 246 90H266C293.614 90 316 112.386 316 140V148H196V140Z" fill="#111827" stroke="url(#g1)" stroke-width="4"/>
    <circle cx="256" cy="92" r="10" fill="#22C55E"/>
    <rect x="172" y="214" width="168" height="92" rx="32" fill="#0F172A" stroke="#334155" stroke-width="2"/>
    <circle cx="224" cy="260" r="22" fill="#7C3AED"/>
    <circle cx="288" cy="260" r="22" fill="#22C55E"/>
    <rect x="210" y="330" width="92" height="18" rx="9" fill="#334155"/>
    <rect x="160" y="170" width="56" height="18" rx="9" fill="#111827" stroke="#334155" stroke-width="2"/>
    <rect x="296" y="170" width="56" height="18" rx="9" fill="#111827" stroke="#334155" stroke-width="2"/>
  </g>
</svg>
